<svg width="35" height="35" xmlns="http://www.w3.org/2000/svg" preserveAspectRatio="xMidYMid meet" class="iconify iconify--emojione" role="img" aria-hidden="true">

 <g>
  <title>Layer 1</title>
  <path stroke="null" id="svg_2" fill="#4285f4" d="m11.30697,2.74437c1.08178,0.37862 2.0013,1.02769 2.65037,2.0013c0.54089,0.75725 0.91952,1.62268 1.13587,2.54219s0.32454,1.78494 0.32454,2.59628c0,2.10948 -0.43271,3.84033 -1.24405,5.30074c-1.13587,1.94721 -2.86673,2.92082 -5.24665,2.92082l-6.81524,0l0,-15.68587l6.76115,0c0.97361,0 1.78494,0.10818 2.43401,0.32454m-6.0039,2.37992l0,10.22286l3.029,0c1.56859,0 2.65037,-0.75725 3.24535,-2.27175c0.32454,-0.81134 0.4868,-1.83903 0.4868,-2.97491c0,-1.62268 -0.27045,-2.81264 -0.75725,-3.67807c-0.4868,-0.86543 -1.5145,-1.29814 -2.97491,-1.29814l-3.029,0"/>
  <path class="st4" d="m14.871,19.95171c-1.6,0 -2.9,0.7 -3.9,1.8c-0.9,-1.1 -2.3,-1.8 -3.9,-1.8c-2.8,0 -5.1,2.3 -5.1,5.1l0,7.9l2.5,0l0,-3.5l0,-4.4c0,-1.4 1.2,-2.6 2.6,-2.6c1.4,0 2.6,1.2 2.6,2.6l0,4.4l0,3.5l2.5,0l0,-3.5l0,-4.4c0,-1.4 1.2,-2.6 2.6,-2.6c1.4,0 2.6,1.2 2.6,2.6l0,4.4l0,3.5l2.6,0l0,-7.9c0,-2.8 -2.3,-5.1 -5.1,-5.1z" fill="#F29900" id="svg_8" stroke="null"/>
  <path class="st0" d="m24.92222,2.29026c-4.42876,0 -7.99638,3.56762 -7.99638,7.99639s3.56762,7.99639 7.99638,7.99639s7.99639,-3.56762 7.99639,-7.99639s-3.56762,-7.99639 -7.99639,-7.99639zm0,12.91724c-2.70646,0 -4.92085,-2.21438 -4.92085,-4.92085c0,-2.70647 2.21439,-4.92085 4.92085,-4.92085c2.70647,0 4.92086,2.21438 4.92086,4.92085c0,2.70647 -2.21439,4.92085 -4.92086,4.92085z" fill="#EA4335" id="svg_6" stroke="null"/>
  <path stroke="null" fill="#34a853" d="m30.98067,28.90966l2.1918,1.4612c-0.70741,1.04661 -2.41215,2.84991 -5.35773,2.84991c-3.653,0 -6.38115,-2.82382 -6.38115,-6.43042c0,-3.82405 2.75134,-6.43044 6.06514,-6.43044c3.33698,0 4.96924,2.65567 5.50269,4.09078l0.29282,0.73059l-8.59614,3.56022c0.65811,1.29015 1.68154,1.94827 3.11664,1.94827c1.438,0 2.43534,-0.7074 3.16594,-1.78011zm-6.74646,-2.31356l5.74623,-2.38605c-0.31602,-0.80308 -1.26695,-1.36262 -2.38605,-1.36262c-1.4351,0 -3.43266,1.26694 -3.36018,3.74867z" id="svg_5"/>
 </g>
</svg>